<svg height="59" viewBox="0 0 179 59" width="179" xmlns="http://www.w3.org/2000/svg"><g fill="#959595" transform="translate(81 18)"><path d="m.36.37h6.904c10.219 0 18.718 5.395 18.718 16.507 0 11.364-8.319 16.849-18.854 16.849h-6.77v-33.36m4.163 29.547h1.457c8.491 0 15.835-3.186 15.835-12.869 0-9.74-7.345-12.873-15.835-12.873h-1.457z"/><path d="m34.78 16.37h.135c.975-2.432 3.01-3.982 5.661-3.982 1.146 0 2.3.401 3.274 1.021l-1.814 3.625c-.707-.616-1.508-.84-2.435-.84-4.288 0-4.821 3.982-4.821 7.344v10.175h-3.982v-20.703h3.982z"/><path d="m52.52 3.56c0 1.505-1.232 2.699-2.741 2.699-1.504 0-2.74-1.193-2.74-2.699 0-1.545 1.236-2.787 2.74-2.787 1.508-.0001 2.741 1.241 2.741 2.787m-.75 30.17h-3.979v-20.7h3.979z"/><path d="m66.03 25.94 5.964-12.921h4.471l-10.438 21.413-10.398-21.413h4.471z"/><path d="m81.87 24.05c.041 3.538 2.432 6.855 6.236 6.855 3.056 0 4.69-1.545 6.198-4.02l3.361 1.899c-1.949 3.591-5.577 5.662-9.604 5.662-6.323 0-10.174-4.774-10.174-10.881 0-6.371 3.409-11.146 10.09-11.146 6.591 0 9.691 4.863 9.691 11.01v.615l-15.795.0001m11.808-3c-.485-3.099-2.519-5.172-5.706-5.172-3.101 0-5.404 2.208-5.89 5.172z"/></g><path d="m22.37.01c3.887 6.78 7.844 13.502 11.695 20.323-3.385 5.886-6.799 11.748-10.178 17.63-3.933 6.623-7.775 13.333-11.599 20.06-.074.03-.048.159-.134.17-3.954-6.692-7.829-13.458-11.698-20.228 7.265-12.689 14.607-25.301 21.914-37.956" fill="#0ba25e"/><path d="m67.61 37.98c.033 0 .035-.029.063-.037.035 0 .041.03.067.037v.033c-3.936 6.712-7.778 13.527-11.734 20.223-14.606-.021-29.3.047-43.855-.033.089-.001.06-.142.134-.169 1.864-1.575 3.659-3.251 5.461-4.92 4.03-3.732 8.132-7.618 12.187-11.329.924-.853 1.798-1.608 2.726-2.494.396-.375.986-1.134 1.382-1.25.278-.077.721-.035 1.082-.035 2.669 0 5.339.029 7.855-.035h1.282c7.796.067 15.599.03 23.366 0" fill="#2a71e9"/><path d="m67.61 37.91c-.055-.106-.063-.251-.138-.34-.461-.961-1.069-1.786-1.548-2.729-.112-.092-.165-.24-.242-.372-.212-.466-.489-.88-.738-1.313-.159-.188-.313-.386-.408-.642-.042-.179-.142-.297-.23-.442-.119-.115-.216-.251-.272-.434-1.553-2.831-3.195-5.571-4.784-8.36-.113-.095-.167-.241-.237-.371-.31-.629-.68-1.195-1.017-1.79-.105-.09-.16-.241-.235-.374-.425-.836-.922-1.615-1.378-2.427-.107-.088-.163-.243-.237-.365-.063-.198-.179-.341-.269-.51-.838-1.451-1.678-2.911-2.527-4.381-2.105-3.619-4.241-7.298-6.303-10.888-.418-.726-.781-1.482-1.282-2.156-7.802 0-15.599 0-23.395 0 3.886 6.781 7.843 13.5 11.694 20.326 1.754 2.889 3.414 5.867 5.127 8.794 1.66 2.967 3.414 5.846 5.056 8.837 7.79.062 15.593.022 23.363 0 0-.028.033-.036.033-.07-.008-.032-.033-.014-.033.007" fill="#fccd48"/><path d="m12.27 58.04c3.824-6.728 7.667-13.438 11.599-20.06h10.178 5.123 3.778c-2.519.064-5.186.033-7.855.033-.36 0-.81-.04-1.08.036-.396.11-.987.876-1.381 1.248-.931.883-1.805 1.642-2.729 2.497-4.04 3.712-8.139 7.595-12.185 11.329-1.801 1.668-3.597 3.34-5.462 4.911" fill="#296ad9"/></svg>