<svg xmlns="http://www.w3.org/2000/svg" width="294" height="42" viewBox="0 0 294 42" role="img">
<title>MediaFire Logo</title>
  <defs>
    <style>
      .cls-1 {
        fill: #07f;
      }

      .cls-2 {
        fill: #fff;
      }

      .cls-3 {
        fill: #0e2866;
      }

      .cls-4 {
        fill: none;
      }
    </style>
  </defs>
  <g id="full_color">
    <path id="flame" class="cls-1" d="M21.9924,9.2571a51.46,51.46,0,0,1,9.3283.9546c2.9084.5369,5.8493,1.5476,8.8277,1.5384,2.2761-.007,4.1162-1.5889,4.11-3.5334s-1.8559-3.5149-4.1318-3.5079a13.3569,13.3569,0,0,0-3.8962.647c.3277-.2425.6626-.4753,1.0061-.6949a26.136,26.136,0,0,1,15.0372-3.634c5.616.2308,11.47,1.9781,15.7643,5.6908A19.8914,19.8914,0,0,1,74.6591,24.54,19.7456,19.7456,0,0,1,62.5323,39.6153a23.995,23.995,0,0,1-14.45.5274c-6.2135-1.57-11.64-5.0474-17.4846-7.5341A46.8579,46.8579,0,0,0,20.026,29.9293l.0571.0015a8.9447,8.9447,0,0,0,4.1139-.6975c1.7275-.8285,1.7225-2.8315.8214-4.2928-1.0708-1.7366-3.2282-2.4456-5.0923-2.9507A24.3621,24.3621,0,0,0,9.97,21.5009,15.0645,15.0645,0,0,0,3.116,23.9357a5.667,5.667,0,0,0-1.8321,2.2266c3.0839-8.5391,9.2048-7.58,12.9647-9.9211a2.1636,2.1636,0,0,0-1.571-3.9286,7.2439,7.2439,0,0,0-2.92,1.4607c-.3188.2434-.6027.4586-.8571.6506C8.9,14.4239,11.9849,9.2571,21.9924,9.2571Z"/>
    <path id="flame_center" data-name="flame center" class="cls-2" d="M65.162,20.3508a8.0007,8.0007,0,0,1-6.2352,9.4431c-7.9435,1.6228-17-4.9725-23.9775-8.1948,11.8386.718,15.2785-6.3665,20.77-7.4835A8.0049,8.0049,0,0,1,65.162,20.3508Z"/>
    <g id="MediaFire">
      <path class="cls-3" d="M87.6259,6.3137h13.4165l.3934,16.7812h.0869l8.5219-16.7812h13.6786l-6.6426,31.2027h-8.9154l4.8077-21.5h-.0876L102.6591,37.5164H95.5363L94.4,16.0159h-.0875L90.0294,37.5164H81.1147Z"/>
      <path class="cls-3" d="M144.82,30.9177c-.5686,1.53-2.2728,7.1673-12.0619,7.1673-8.041,0-11.275-4.5019-11.275-10.008,0-10.4007,7.9541-13.8092,13.5917-13.8092,5.0251,0,11.1,2.7969,11.1,9.92a14.0869,14.0869,0,0,1-.4372,3.9333H129.5676c0,2.4035.8306,4.4135,3.54,4.4135a3.7037,3.7037,0,0,0,3.4084-1.6166ZM138.002,23.62a4.2984,4.2984,0,0,0,.0876-.743,2.9529,2.9529,0,0,0-3.2779-3.0589c-2.3159,0-3.8457,1.3984-4.5011,3.8019Z"/>
      <path class="cls-3" d="M161.9463,34.9385h-.0869a6.8194,6.8194,0,0,1-6.0309,3.1465c-7.298,0-8.303-6.4681-8.303-9.2212,0-8.6088,4.5011-14.596,11.275-14.596,2.6217,0,5.069.7861,6.555,3.3647l2.36-11.3188h8.6526L169.9,37.5164h-8.4782Zm1.1631-10.1824c0-2.5349-.8736-4.1953-3.1027-4.1953-3.4523,0-4.5887,4.2391-4.5887,7.5162,0,2.0539.9175,3.715,3.19,3.715C161.973,31.792,163.1094,27.4654,163.1094,24.7561Z"/>
      <path class="cls-3" d="M177.06,14.8357h8.6526l-4.7193,22.6807h-8.6526Zm9.1336-2.4473h-8.6526l1.267-6.0747h8.6527Z"/>
      <path class="cls-3" d="M215.1012,6.3137H239.18l-1.7821,8.522H222.9329l-.83,3.8887h12.28l-1.53,7.4294h-12.28l-2.3694,11.3626H208.59Z"/>
      <path class="cls-3" d="M239.7967,14.8357h8.6526L243.73,37.5164h-8.6527Z"/>
      <path class="cls-3" d="M291.2,24.1875c0-7.1228-6.074-9.92-11.1-9.92a14.7412,14.7412,0,0,0-8.1581,2.4538,11.8442,11.8442,0,0,0-3.8588,4.3279,14.9611,14.9611,0,0,0-1.574,7.0275c0,5.5061,3.234,10.008,11.2743,10.008,9.789,0,11.494-5.6375,12.0619-7.1673h-8.3031a3.7058,3.7058,0,0,1-3.4085,1.6166c-2.71,0-3.54-2.01-3.54-4.4135h16.1688A14.0906,14.0906,0,0,0,291.2,24.1875Zm-8.1716-.5678H275.337c.6554-2.4035,2.1845-3.8019,4.5011-3.8019a2.9526,2.9526,0,0,1,3.2771,3.0589A4.3764,4.3764,0,0,1,283.0284,23.62Z"/>
      <g>
        <path class="cls-4" d="M265.8115,22.008l.9171-2.016A14.411,14.411,0,0,0,265.8115,22.008Z"/>
        <path class="cls-3" d="M269.0953,14.7893a10.6666,10.6666,0,0,0-3.3837-.5214c-.02,0-.04.0036-.061.0038a8.5153,8.5153,0,0,0-2.5.4118,9.552,9.552,0,0,0-4.5622,3.692h-.0876l.1375-.6553.6055-2.8845h-8.3468l-4.72,22.6807H254.83l2.228-10.5648c1.0486-3.9015,2.8609-5.2432,6.21-5.254l.04-.0012a10.1,10.1,0,0,1,2.5041.3116Z"/>
      </g>
      <path class="cls-3" d="M198.49,14.2679c-5.55,0-10.2261,1.3983-11.5808,7.4285h8.1286c.48-1.7042,1.7042-2.3158,3.4522-2.3158,1.3109,0,2.7093.3934,2.7093,1.9662,0,2.7969-3.8894,2.4473-6.3367,2.6225-6.5112.481-10.9685,2.0975-10.9685,8.0848,0,4.3259,3.4523,6.0309,7.341,6.0309,2.5349,0,5.4631-.9182,6.9922-2.7538l.1194-.16h0l-.4825,2.3451h8.2791l3.03-14.1619a23.1667,23.1667,0,0,0,.3288-3.0564C209.5025,14.7919,202.5979,14.2679,198.49,14.2679Zm1.1469,14.6333c-.6355,2.52-1.8547,4.07-4.3371,4.07-1.3985,0-2.7531-.3934-2.7531-1.9663,0-1.66,1.3546-2.4034,2.7969-2.5348a12.5352,12.5352,0,0,0,4.5887-1.005Z"/>
      <polygon class="cls-3" points="248.93 12.388 240.278 12.388 241.545 6.314 250.197 6.314 248.93 12.388"/>
    </g>
  </g>
</svg>