<svg
  width="179px"
  height="59px"
  viewBox="0 0 179 59"
  xmlns="http://www.w3.org/2000/svg"
  role="img"
>
  <title>Google Drive Logo</title>
  <g id="Group" transform="translate(81.000000, 18.000000)" fill="#959595">
    <path
      d="M0.36,0.37 L7.264,0.37 C17.483,0.37 25.982,5.765 25.982,16.877 C25.982,28.241 17.663,33.726 7.128,33.726 L0.358,33.726 L0.358,0.366 M4.521,29.913 L5.978,29.913 C14.469,29.913 21.813,26.727 21.813,17.044 C21.813,7.304 14.468,4.171 5.978,4.171 L4.521,4.171 L4.521,29.913"
      id="Shape"
      fill-rule="nonzero"
    />
    <path
      d="M34.78,16.37 L34.915,16.37 C35.89,13.938 37.925,12.388 40.576,12.388 C41.722,12.388 42.876,12.789 43.85,13.409 L42.036,17.034 C41.329,16.418 40.528,16.194 39.601,16.194 C35.313,16.194 34.78,20.176 34.78,23.538 L34.78,33.713 L30.798,33.713 L30.798,13.01 L34.78,13.01 L34.78,16.37"
      id="Path"
    />
    <path
      d="M52.52,3.56 C52.52,5.065 51.288,6.259 49.779,6.259 C48.275,6.259 47.039,5.066 47.039,3.56 C47.039,2.015 48.275,0.773 49.779,0.773 C51.287,0.7729 52.52,2.014 52.52,3.56 M51.77,33.73 L47.791,33.73 L47.791,13.03 L51.77,13.03 L51.77,33.73"
      id="Shape"
      fill-rule="nonzero"
    />
    <polyline
      id="Path"
      points="66.03 25.94 71.994 13.019 76.465 13.019 66.027 34.432 55.629 13.019 60.1 13.019 66.03 25.94"
    />
    <path
      d="M81.87,24.05 C81.911,27.588 84.302,30.905 88.106,30.905 C91.162,30.905 92.796,29.36 94.304,26.885 L97.665,28.784 C95.716,32.375 92.088,34.446 88.061,34.446 C81.738,34.446 77.887,29.672 77.887,23.565 C77.887,17.194 81.296,12.419 87.977,12.419 C94.568,12.419 97.668,17.282 97.668,23.429 L97.668,24.044 L81.873,24.0441 M93.681,21.0441 C93.196,17.9451 91.162,15.8721 87.975,15.8721 C84.874,15.8721 82.571,18.0801 82.085,21.0441 L93.681,21.0441"
      id="Shape"
      fill-rule="nonzero"
    />
  </g>
  <path
    d="M22.37,0.01 C26.257,6.79 30.214,13.512 34.065,20.333 C30.68,26.219 27.266,32.081 23.887,37.963 C19.954,44.586 16.112,51.296 12.288,58.023 C12.214,58.053 12.24,58.182 12.154,58.193 C8.2,51.501 4.325,44.735 0.456,37.965 C7.721,25.276 15.063,12.664 22.37,0.009"
    id="Path"
    fill="#0BA25E"
  />
  <path
    d="M67.61,37.98 C67.643,37.98 67.645,37.951 67.673,37.943 C67.708,37.943 67.714,37.973 67.74,37.98 C67.74,37.991 67.74,38.002 67.74,38.013 C63.804,44.725 59.962,51.54 56.006,58.236 C41.4,58.215 26.706,58.283 12.151,58.203 C12.24,58.202 12.211,58.061 12.285,58.034 C14.149,56.459 15.944,54.783 17.746,53.114 C21.776,49.382 25.878,45.496 29.933,41.785 C30.857,40.932 31.731,40.177 32.659,39.291 C33.055,38.916 33.645,38.157 34.041,38.041 C34.319,37.964 34.762,38.006 35.123,38.006 C37.792,38.006 40.462,38.035 42.978,37.971 C43.403,37.971 43.83,37.971 44.26,37.971 C52.056,38.038 59.859,38.001 67.626,37.971"
    id="Path"
    fill="#2A71E9"
  />
  <path
    d="M67.61,37.91 C67.555,37.804 67.547,37.659 67.472,37.57 C67.011,36.609 66.403,35.784 65.924,34.841 C65.812,34.749 65.759,34.601 65.682,34.469 C65.47,34.003 65.193,33.589 64.944,33.156 C64.785,32.968 64.631,32.77 64.536,32.514 C64.494,32.335 64.394,32.217 64.306,32.072 C64.187,31.957 64.09,31.821 64.034,31.638 C62.481,28.807 60.839,26.067 59.25,23.278 C59.137,23.183 59.083,23.037 59.013,22.907 C58.703,22.278 58.333,21.712 57.996,21.117 C57.891,21.027 57.836,20.876 57.761,20.743 C57.336,19.907 56.839,19.128 56.383,18.316 C56.276,18.228 56.22,18.073 56.146,17.951 C56.083,17.753 55.967,17.61 55.877,17.441 C55.039,15.99 54.199,14.53 53.35,13.06 C51.245,9.441 49.109,5.762 47.047,2.172 C46.629,1.446 46.266,0.69 45.765,0.016 C37.963,0.016 30.166,0.016 22.37,0.016 C26.256,6.797 30.213,13.516 34.064,20.342 C35.818,23.231 37.478,26.209 39.191,29.136 C40.851,32.103 42.605,34.982 44.247,37.973 C52.037,38.035 59.84,37.995 67.61,37.973 C67.61,37.945 67.643,37.937 67.643,37.903 C67.635,37.871 67.61,37.889 67.61,37.91"
    id="Path"
    fill="#FCCD48"
  />
  <path
    d="M12.27,58.04 C16.094,51.312 19.937,44.602 23.869,37.98 C27.26,37.98 30.65,37.98 34.047,37.98 C35.754,37.98 37.466,37.98 39.17,37.98 C40.429,37.98 41.684,37.98 42.948,37.98 C40.429,38.044 37.762,38.013 35.093,38.013 C34.733,38.013 34.283,37.973 34.013,38.049 C33.617,38.159 33.026,38.925 32.632,39.297 C31.701,40.18 30.827,40.939 29.903,41.794 C25.863,45.506 21.764,49.389 17.718,53.123 C15.917,54.791 14.121,56.463 12.256,58.034"
    id="Path"
    fill="#296AD9"
  />
</svg>
